<svg width="251" height="230" viewBox="0 0 251 230" fill="none" xmlns="http://www.w3.org/2000/svg">
<path opacity="0.5" d="M115.035 230C178.567 230 230.07 178.513 230.07 115C230.07 51.4873 178.567 0 115.035 0C51.503 0 0 51.4873 0 115C0 178.513 51.503 230 115.035 230Z" fill="#2A3241"/>
<path d="M250.016 64.6187C250.016 78.3251 240.633 89.8487 227.946 93.113L223.756 93.2507C217.186 102.395 202.275 100.802 202.275 100.802C213.409 98.2259 209.435 91.8545 209.435 91.8545C198.695 87.4692 191.142 76.9289 191.142 64.6187C191.142 48.3559 204.321 35.1804 220.569 35.1804C236.837 35.1804 250.016 48.3559 250.016 64.6187Z" fill="#FAF8F7"/>
<path d="M241.479 139.148L241.676 143.514L206.052 145.127L205.855 140.741C205.855 140.741 215.022 131.164 216.478 129.277L221.808 132.462L226.549 128.549L237.447 139.325L241.479 139.148Z" fill="#E62A2E"/>
<path d="M240.476 116.691L241.479 139.148L237.447 139.325L226.549 128.549L236.581 120.251L236.424 116.868L240.476 116.691Z" fill="#E62A2E"/>
<path d="M216.478 129.277L203.79 121.725L203.633 118.343L236.424 116.868L236.581 120.251L226.549 128.549L221.808 132.462L216.478 129.277Z" fill="#E62A2E"/>
<path d="M203.79 121.725L216.478 129.277C215.022 131.164 205.855 140.741 205.855 140.741L206.052 145.127L200.682 145.363L199.462 118.54L203.633 118.343L203.79 121.725Z" fill="#E62A2E"/>
<path d="M199.856 175.312L192.971 178.458L191.633 185.911L186.539 180.327L179.044 181.369L182.762 174.801L179.457 167.997L186.873 169.491L192.322 164.241L193.168 171.772L199.856 175.312Z" fill="#FAF8F7"/>
<path d="M186.578 37.5992L182.368 43.5576L184.886 50.401L177.923 48.2379L172.199 52.7411L172.1 45.4455L166.042 41.3945L172.946 39.0544L174.933 32.0537L179.3 37.8942L186.578 37.5992Z" fill="#E62A2E"/>
<path d="M170.94 87.3318V154.743L99.5345 125.521V104.244L170.94 87.3318Z" fill="#E62A2E"/>
<path d="M170.94 61.6887V87.3317L99.5345 104.243V90.5174L170.94 61.6887Z" fill="#FAF8F7"/>
<path d="M99.5345 104.243V125.521H87.4566H65.5826H56.357V119.759V97.4787V90.5173H99.5345V104.243Z" fill="#E62A2E"/>
<path d="M93.6332 141.174C93.6332 141.174 100.144 145.913 93.6922 150.731L74.4541 150.829C67.2153 145.854 74.3951 141.272 74.3951 141.272L87.4566 141.213L93.6332 141.174Z" fill="#FAF8F7"/>
<path d="M93.6529 150.829C93.6529 150.829 100.164 154.92 93.6922 159.069L90.4662 159.089L74.4541 159.167C67.2153 154.88 74.4148 150.908 74.4148 150.908H74.4541L93.6529 150.829Z" fill="#FAF8F7"/>
<path d="M90.4662 160.209C90.4662 160.209 96.0527 164.319 90.5055 168.469L86.3943 168.488L74.0017 168.547C73.2739 168.056 72.7231 167.564 72.31 167.072C69.143 163.395 73.9624 160.288 73.9624 160.288L90.4662 160.209Z" fill="#FAF8F7"/>
<path d="M90.4662 159.088V160.209L73.9624 160.288C73.9624 160.288 69.143 163.395 72.31 167.072H70.0872H64.7171L65.3859 139.837C77.9556 140.839 84.3092 139.463 87.4566 137.516V141.174V141.213L74.3951 141.272C74.3951 141.272 67.2153 145.854 74.4541 150.829V150.908H74.4148C74.4148 150.908 67.2153 154.88 74.4541 159.167L90.4662 159.088Z" fill="#E62A2E"/>
<path d="M89.9744 131.027C89.9744 131.027 91.8432 134.822 87.4566 137.516C84.3092 139.463 77.9556 140.84 65.3859 139.837L64.7171 167.073H70.0872H72.31C72.7231 167.564 73.2739 168.056 74.0017 168.547L86.3943 168.488V169.59L73.1952 169.668C73.1952 169.668 68.2775 173.621 73.2345 177.928L83.8765 177.869V177.928L79.7063 180.209C79.7063 180.209 66.1137 180.209 59.3469 180.209C52.5802 180.209 52.9932 176.217 49.8066 175.43C46.6199 174.643 40.7776 175.43 40.7776 175.43V142.826C40.7776 142.826 47.4067 143.612 48.8034 140.82C50.2 138.047 54.98 130.299 59.1502 131.086C60.1731 131.283 62.5533 131.381 65.5826 131.4C72.5067 131.479 82.7552 131.224 87.4566 131.106C89.0302 131.066 89.9744 131.027 89.9744 131.027Z" fill="#FAF8F7"/>
<path d="M87.4566 131.027V131.106C82.7552 131.224 72.5067 131.479 65.5826 131.401V125.521H87.4566V131.027Z" fill="#E62A2E"/>
<path d="M86.3943 169.59C86.3943 169.59 90.8596 173.719 86.4337 177.849L83.8765 177.868L73.2346 177.927C68.2775 173.621 73.1952 169.668 73.1952 169.668L86.3943 169.59Z" fill="#FAF8F7"/>
<path d="M56.357 97.4788H46.2265V119.759H56.357V97.4788Z" fill="#E62A2E"/>
<path d="M40.7777 175.43V183.512L34.1486 181.664V134.193H40.7777V142.826V175.43Z" fill="#E62A2E"/>
<path d="M34.1486 181.664V185.38H8.95023V130.221L34.1486 129.159V134.193V181.664Z" fill="#FAF8F7"/>
<path d="M34.1486 134.193V129.159L8.95023 130.221V185.38H34.1486V181.664V134.193Z" stroke="#2B3242" stroke-miterlimit="10"/>
<path d="M34.1486 134.193H40.7777V142.826V175.43V183.512L34.1486 181.664" stroke="#2B3242" stroke-miterlimit="10"/>
<path d="M40.7776 142.826C40.7776 142.826 47.4067 143.612 48.8034 140.82C50.2 138.047 54.98 130.299 59.1502 131.086C60.1731 131.283 62.5533 131.381 65.5826 131.4C72.5067 131.479 82.7552 131.224 87.4566 131.106C89.0302 131.066 89.9744 131.027 89.9744 131.027C89.9744 131.027 91.8432 134.822 87.4566 137.516C84.3092 139.463 77.9556 140.84 65.3859 139.837L64.7171 167.073H70.0872H72.31" stroke="#2B3242" stroke-miterlimit="10"/>
<path d="M56.357 119.759V125.521H65.5826H87.4566H99.5345V104.243V90.5173H56.357V97.4787V119.759Z" stroke="#2B3242" stroke-miterlimit="10"/>
<path d="M56.357 97.4788H46.2265V119.759H56.357" stroke="#2B3242" stroke-miterlimit="10"/>
<path d="M99.5345 90.5174L170.94 61.6887V87.3317V154.743L99.5345 125.521" stroke="#2B3242" stroke-miterlimit="10"/>
<path d="M99.5345 104.244L170.94 87.3318" stroke="#2B3242" stroke-miterlimit="10"/>
<path d="M87.4566 141.213L93.6332 141.174C93.6332 141.174 100.144 145.913 93.6922 150.731L74.4541 150.829C67.2153 145.854 74.3951 141.272 74.3951 141.272L87.4566 141.213Z" stroke="#2B3242" stroke-miterlimit="10"/>
<path d="M74.4541 150.908L93.6529 150.829C93.6529 150.829 100.164 154.92 93.6922 159.069L90.4662 159.089L74.4541 159.167C67.2153 154.88 74.4148 150.908 74.4148 150.908H74.4541Z" stroke="#2B3242" stroke-miterlimit="10"/>
<path d="M90.4662 160.209C90.4662 160.209 96.0527 164.319 90.5055 168.469L86.3943 168.488L74.0017 168.547C73.2739 168.056 72.7231 167.564 72.31 167.072C69.143 163.395 73.9624 160.288 73.9624 160.288L90.4662 160.209Z" stroke="#2B3242" stroke-miterlimit="10"/>
<path d="M86.3943 169.59C86.3943 169.59 90.8596 173.719 86.4337 177.849L83.8765 177.868L73.2346 177.927C68.2775 173.621 73.1952 169.668 73.1952 169.668L86.3943 169.59Z" stroke="#2B3242" stroke-miterlimit="10"/>
<path d="M40.7776 175.43C40.7776 175.43 46.6199 174.644 49.8066 175.43C52.9932 176.217 52.5802 180.209 59.3469 180.209C66.1137 180.209 79.7063 180.209 79.7063 180.209L83.8765 177.928" stroke="#2B3242" stroke-miterlimit="10"/>
<path d="M203.633 118.343L199.462 118.54L200.682 145.362L206.052 145.127L241.676 143.514L241.479 139.148L240.476 116.691L236.424 116.868L203.633 118.343Z" stroke="#2B3242" stroke-miterlimit="10"/>
<path d="M203.79 121.726L216.478 129.277L221.808 132.463L226.549 128.549L236.581 120.251" stroke="#2B3242" stroke-miterlimit="10"/>
<path d="M216.674 128.982C216.655 129.021 216.596 129.139 216.478 129.277C215.022 131.164 205.855 140.741 205.855 140.741" stroke="#2B3242" stroke-miterlimit="10"/>
<path d="M226.549 128.549L237.447 139.325" stroke="#2B3242" stroke-miterlimit="10"/>
<path d="M176.31 68.0405L187.66 61.6887" stroke="#2B3242" stroke-miterlimit="10"/>
<path d="M176.31 87.3317C177.116 87.5283 189.45 84.146 189.45 84.146" stroke="#2B3242" stroke-miterlimit="10"/>
<path d="M176.31 108.019L189.45 108.215" stroke="#2B3242" stroke-miterlimit="10"/>
<path d="M176.31 127.507L189.45 132.679" stroke="#2B3242" stroke-miterlimit="10"/>
<path d="M176.31 147.388L189.45 154.743" stroke="#2B3242" stroke-miterlimit="10"/>
<path d="M223.756 93.2507C217.186 102.395 202.275 100.802 202.275 100.802C213.409 98.2259 209.435 91.8545 209.435 91.8545C198.695 87.4692 191.142 76.9289 191.142 64.6187C191.142 48.3559 204.321 35.1804 220.569 35.1804C236.837 35.1804 250.016 48.3559 250.016 64.6187C250.016 78.3251 240.633 89.8487 227.946 93.113L223.756 93.2507Z" stroke="#2B3242" stroke-miterlimit="10"/>
<path d="M191.633 185.911L186.539 180.327L179.044 181.369L182.762 174.801L179.457 167.997L186.873 169.491L192.322 164.241L193.168 171.772L199.856 175.312L192.971 178.458L191.633 185.911Z" stroke="#2B3242" stroke-miterlimit="10"/>
<path d="M184.886 50.401L177.923 48.2379L172.199 52.7411L172.1 45.4455L166.042 41.3945L172.946 39.0544L174.933 32.0537L179.3 37.8942L186.578 37.5992L182.368 43.5576L184.886 50.401Z" stroke="#2B3242" stroke-miterlimit="10"/>
<path d="M65.5826 131.401V125.521" stroke="#2B3242" stroke-miterlimit="10"/>
<path d="M87.4566 125.521V131.027" stroke="#2B3242" stroke-miterlimit="10"/>
<path d="M87.4566 137.516V141.174" stroke="#2B3242" stroke-miterlimit="10"/>
</svg>
