<svg width="230" height="230" viewBox="0 0 230 230" fill="none" xmlns="http://www.w3.org/2000/svg">
<path opacity="0.5" d="M115 230C178.513 230 230 178.513 230 115C230 51.4873 178.513 0 115 0C51.4873 0 0 51.4873 0 115C0 178.513 51.4873 230 115 230Z" fill="#2A3241"/>
<path d="M199.834 53.6458H90.9696V214.052H199.834V53.6458Z" fill="#E6292C" stroke="#2B3242" stroke-miterlimit="10"/>
<path d="M179.206 38.5039V203.354H84.0279C84.0082 203.217 83.9689 203.099 83.9492 202.981C83.2806 200.483 82.4547 197.828 81.6288 195.449H168.39V38.5039H179.206Z" fill="#F9F4F4"/>
<path d="M168.39 38.5039V195.449H81.6288C80.0359 190.69 78.5414 186.895 78.5414 186.895L47.9232 133.8V132.305V130.712V30.5986H168.39V38.5039ZM154.92 67.6275V47.6874H60.7054V67.6079H154.92V67.6275Z" fill="#F9F4F4"/>
<path d="M154.92 47.6873H60.7054V67.6077H154.92V47.6873Z" fill="#E62A2E"/>
<path d="M84.0279 203.335C85.6207 209.234 86.2697 214.347 83.6149 213.796C81.4714 213.324 78.2661 210.984 75.0017 208.133C75.0017 208.133 76.8305 203.315 83.9295 202.961C83.9689 203.079 84.0082 203.197 84.0279 203.335Z" fill="#E62A2E"/>
<path d="M81.6288 195.429C82.4547 197.809 83.2806 200.463 83.9493 202.961C76.8306 203.315 75.0214 208.133 75.0214 208.133C73.2516 206.599 71.5211 204.967 69.9086 203.334C65.9756 199.421 62.8489 195.921 62.8489 195.921L63.6945 195.429L70.6952 191.398L78.5414 186.875C78.5414 186.875 80.0359 190.67 81.6288 195.429Z" fill="#F9F4F4"/>
<path d="M47.9233 133.8L78.5415 186.875L70.6952 191.398L37.9926 134.783L45.8585 130.24L47.9233 133.8Z" fill="#E62A2E"/>
<path d="M37.9925 134.783L70.6951 191.398L63.6945 195.429H62.5539L47.9233 170.101L30.1462 139.306L37.9925 134.783Z" fill="#E62A2E"/>
<path d="M69.9085 203.335H67.765H58.7389V195.429H62.5539L62.8488 195.921C62.8488 195.941 65.9559 199.421 69.9085 203.335Z" fill="#F9F4F4"/>
<path d="M63.6945 195.429L62.8489 195.941L62.554 195.429H63.6945Z" fill="#F9F4F4"/>
<path d="M47.9232 170.101L62.5539 195.429H58.7389H47.9232V172.127V170.101Z" fill="#F9F4F4"/>
<path d="M65.5429 195.429H63.6944H62.5539H58.7389" stroke="#2A3241" stroke-miterlimit="10"/>
<path d="M47.9232 130.712V30.5986H168.39V38.5039V195.429H81.6288H80.4292" stroke="#2A3241" stroke-miterlimit="10"/>
<path d="M58.7389 195.429H47.9232V172.126" stroke="#2A3241" stroke-miterlimit="10"/>
<path d="M67.7651 203.335H58.7389V195.429" stroke="#2A3241" stroke-miterlimit="10"/>
<path d="M168.39 38.5039H179.206V203.335H84.0279H82.8087" stroke="#2A3241" stroke-miterlimit="10"/>
<path d="M154.92 47.6873H60.7054V67.6077H154.92V47.6873Z" stroke="#2A3241" stroke-miterlimit="10"/>
<path d="M60.0564 83.2217H156.237" stroke="#2A3241" stroke-miterlimit="10"/>
<path d="M59.7025 104.774H155.923" stroke="#2A3241" stroke-miterlimit="10"/>
<path d="M60.0564 124.085H156.237" stroke="#2A3241" stroke-miterlimit="10"/>
<path d="M60.0564 144.891H156.237" stroke="#2A3241" stroke-miterlimit="10"/>
<path d="M78.5414 186.875L70.6951 191.398L63.6945 195.429L62.8489 195.94L62.5539 195.429L47.9233 170.101L30.1462 139.306L37.9925 134.783L45.8584 130.24L47.9233 133.8L78.5414 186.875Z" stroke="#2A3241" stroke-miterlimit="10"/>
<path d="M37.9926 134.783L70.6952 191.398" stroke="#2A3241" stroke-miterlimit="10"/>
<path d="M62.8489 195.941C62.8489 195.941 65.9559 199.441 69.9086 203.354C71.5211 204.967 73.2516 206.619 75.0214 208.152C78.2858 211.004 81.4911 213.364 83.6346 213.816C86.2894 214.367 85.6404 209.254 84.0476 203.354C84.0279 203.217 83.9886 203.099 83.9689 202.981C83.3003 200.483 82.4744 197.828 81.6485 195.449C80.0556 190.69 78.5611 186.895 78.5611 186.895" stroke="#2A3241" stroke-miterlimit="10"/>
<path d="M75.0214 208.133C75.0214 208.133 76.8502 203.315 83.9492 202.961" stroke="#2A3241" stroke-miterlimit="10"/>
<path d="M47.9232 130.712V132.305V133.8V133.859" stroke="#2A3241" stroke-miterlimit="10"/>
<path d="M47.9232 172.127V170.101" stroke="#2A3241" stroke-miterlimit="10"/>
<path d="M67.7651 203.335H69.9086" stroke="#2A3241" stroke-miterlimit="10"/>
</svg>
