<svg width="230" height="230" viewBox="0 0 230 230" fill="none" xmlns="http://www.w3.org/2000/svg">
<path opacity="0.5" d="M115 230C178.513 230 230 178.513 230 115C230 51.4873 178.513 0 115 0C51.4873 0 0 51.4873 0 115C0 178.513 51.4873 230 115 230Z" fill="#2A3241"/>
<path d="M30.6182 127.212L33.0959 126.327H95.6301L30.6182 127.212Z" fill="white"/>
<path d="M150.475 137.791L202.45 142.393C200.208 151.812 196.452 160.602 191.437 168.567L187.976 166.443C190.788 162.018 191.988 159.029 191.988 159.029L150.475 137.791Z" fill="white"/>
<path d="M95.3942 104.066L95.6301 126.327H33.0959L95.3942 104.066Z" fill="white"/>
<path d="M201.781 62.062C201.781 62.062 228.781 96.8884 212.459 145.697L202.45 142.393L119.975 115.039L121.312 114.174L188.094 70.9309L201.781 62.062Z" fill="#E62A2E"/>
<path d="M21.9656 46.2123H85.3454V35.0623H21.9656V46.2123ZM12.2709 25.3872H95.6105V37.894C95.3155 37.953 95.0205 38.0317 94.7256 38.1104L95.3942 104.066L33.0959 126.327H12.2709V25.3872Z" fill="white"/>
<path d="M164.87 70.282L148.057 85.247L118.441 95.8266L116.101 49.8502C116.082 49.8502 143.455 46.1139 164.87 70.282Z" fill="#E62A2E"/>
<path d="M150.475 137.791L192.008 159.03C192.008 159.03 190.788 162.019 187.996 166.443C181.33 176.925 165.755 195.449 136.317 201.447L122.689 135.353L150.475 137.791Z" fill="#E62A2E"/>
<path d="M150.475 137.791L122.689 135.353L119.975 122.237L150.475 137.791Z" fill="#E62A2E"/>
<path d="M119.189 110.89L118.422 95.8265L148.037 85.2468L119.189 110.89Z" fill="#E62A2E"/>
<path d="M136.317 201.447C165.755 195.449 181.33 176.925 187.996 166.443L191.457 168.567C176.04 193.089 148.745 209.372 117.655 209.372C71.1867 209.372 33.2139 173.031 30.6378 127.192L122.709 135.333L136.317 201.447Z" fill="white"/>
<path d="M95.6301 103.988V126.327L95.3942 104.066L95.6301 103.988Z" fill="white"/>
<path d="M121.312 114.174L119.975 115.039L202.45 142.393L150.475 137.791L119.975 122.237L122.689 135.353L30.6182 127.212L95.6301 126.327V103.988V103.968L118.422 95.8267L119.189 110.89L121.312 114.174Z" fill="white"/>
<path d="M85.3454 35.0623H21.9657V46.2122H85.3454V35.0623Z" fill="#E62D31"/>
<path d="M164.87 70.282C143.455 46.1139 116.082 49.8502 116.082 49.8502L118.422 95.8266L95.6301 103.968V37.894C102.67 36.0455 110.044 35.0623 117.635 35.0623C146.601 35.0623 172.264 49.2013 188.094 70.9309L148.057 85.2469L164.87 70.282Z" fill="white"/>
<path d="M121.312 114.174L119.189 110.89L148.037 85.2469L188.094 70.9309L121.312 114.174Z" fill="white"/>
<path d="M95.6302 103.968V103.988L95.4138 104.066L94.7452 38.1104C95.0402 38.0317 95.3352 37.953 95.6302 37.894V103.968Z" fill="white"/>
<path d="M202.45 142.393C200.208 151.813 196.452 160.603 191.437 168.567C176.02 193.089 148.725 209.372 117.635 209.372C71.1671 209.372 33.1943 173.031 30.6182 127.192" stroke="#2B3242" stroke-miterlimit="10"/>
<path d="M95.6301 126.327L30.6182 127.212" stroke="#2B3242" stroke-miterlimit="10"/>
<path d="M188.094 70.9309C172.264 49.2013 146.601 35.0623 117.635 35.0623C110.044 35.0623 102.67 36.0258 95.6301 37.894" stroke="#2B3242" stroke-miterlimit="10"/>
<path d="M187.996 166.443C181.33 176.924 165.755 195.449 136.317 201.447L122.689 135.353L119.975 122.237L150.475 137.811L192.008 159.049C192.008 159.049 190.788 162.038 187.996 166.443Z" stroke="#2B3242" stroke-miterlimit="10"/>
<path d="M188.094 70.9309L201.781 62.062C201.781 62.062 228.781 96.8884 212.459 145.697L202.45 142.393L119.975 115.039L121.312 114.174L188.094 70.9309Z" stroke="#2B3242" stroke-miterlimit="10"/>
<path d="M118.422 95.8267L116.082 49.8502C116.082 49.8502 143.455 46.1139 164.87 70.282L148.057 85.247L119.189 110.89L118.422 95.8267Z" stroke="#2B3242" stroke-miterlimit="10"/>
<path d="M95.6301 126.327H33.0959H12.2709V25.3872H95.6301V37.894V103.968V103.988V126.327Z" stroke="#2B3242" stroke-miterlimit="10"/>
<path d="M85.3454 35.0623H21.9657V46.2122H85.3454V35.0623Z" stroke="#2B3242" stroke-miterlimit="10"/>
<path d="M21.9657 64.1072H85.3651" stroke="#2B3242" stroke-miterlimit="10"/>
<path d="M33.4106 74.3918H85.6404" stroke="#2B3242" stroke-miterlimit="10"/>
<path d="M43.3806 86.1318H85.6404" stroke="#2B3242" stroke-miterlimit="10"/>
</svg>
